<?xml version="1.0" standalone="no"?>
<!DOCTYPE svg PUBLIC "-//W3C//DTD SVG 20010904//EN"
 "http://www.w3.org/TR/2001/REC-SVG-20010904/DTD/svg10.dtd">
<svg version="1.0" xmlns="http://www.w3.org/2000/svg"
 width="422.000000pt" height="422.000000pt" viewBox="0 0 422.000000 422.000000"
 preserveAspectRatio="xMidYMid meet">
<metadata>
Created by potrace 1.14, written by Peter Selinger 2001-2017
</metadata>
<g transform="translate(0.000000,422.000000) scale(0.100000,-0.100000)"
fill="#000000" stroke="none">
<path d="M2538 3909 c-7 -4 -1 -19 15 -41 61 -80 60 -59 61 -806 2 -771 5
-741 -76 -822 -66 -66 -160 -103 -278 -109 -13 -1 -15 -109 -15 -909 l0 -907
563 -3 562 -2 0 930 0 930 -37 1 c-51 1 -61 3 -121 29 -61 26 -122 88 -153
157 -24 53 -34 182 -16 218 13 25 21 31 84 55 l52 19 61 -22 c101 -36 168
-116 197 -235 14 -60 16 -177 17 -1074 l1 -1008 382 0 383 0 0 928 0 928 -73
17 c-151 36 -258 105 -312 201 -72 128 -197 279 -279 336 -79 54 -132 71 -238
76 -62 3 -106 0 -119 -7 -31 -16 -37 -1 -9 22 31 25 260 179 265 179 3 0 33
17 67 38 35 21 70 42 78 46 8 4 24 12 35 19 23 14 163 92 218 123 22 11 40 25
40 30 1 5 -110 10 -273 12 l-275 2 -22 -72 c-12 -40 -43 -110 -69 -155 -64
-112 -210 -270 -231 -249 -3 3 -5 257 -5 565 0 309 -3 562 -7 562 -26 5 -465
3 -473 -2z"/>
<path d="M930 3205 c-209 -40 -392 -182 -426 -331 -3 -16 -6 -58 -6 -93 1
-132 82 -225 193 -222 128 2 205 81 203 208 -1 77 -24 115 -105 169 -60 41
-75 65 -58 96 15 28 97 60 149 59 143 -4 185 -19 227 -82 22 -34 27 -53 29
-123 3 -76 1 -89 -26 -143 -52 -103 -162 -192 -309 -247 -36 -14 -115 -44
-176 -67 -200 -76 -279 -118 -382 -205 -115 -98 -201 -290 -229 -514 -12 -92
-5 -385 10 -467 3 -11 7 -38 10 -59 32 -197 100 -355 255 -588 79 -119 222
-219 371 -261 96 -27 408 -26 516 1 80 20 227 129 294 217 l51 67 47 -52 c91
-103 153 -156 220 -191 93 -48 135 -60 213 -59 73 1 78 2 133 46 l36 30 0 862
0 863 -52 14 c-29 9 -73 18 -98 22 -124 19 -169 88 -254 385 -88 309 -176 456
-339 571 -39 27 -75 49 -81 49 -6 0 -22 6 -36 13 -74 39 -264 55 -380 32z
m184 -647 c-26 -210 -99 -389 -179 -438 -84 -52 -185 3 -185 100 0 69 17 91
134 171 44 30 114 86 155 126 42 40 77 72 78 73 1 0 0 -15 -3 -32z"/>
</g>
</svg>
